<svg width="27" height="34" viewBox="0 0 27 34" fill="none" xmlns="http://www.w3.org/2000/svg">
<path d="M17.3 33H3.09998C1.89998 33 1 32.1 1 30.9V14C1 12.8 1.89998 11.9 3.09998 11.9H17.3C18.5 11.9 19.4 12.8 19.4 14V30.9C19.4 32.1 18.4 33 17.3 33Z" stroke="white" stroke-width="2" stroke-miterlimit="10" stroke-linecap="round"/>
<path d="M19.4 23.7C19.9 23.9 20.5 24.1 21.1 24.1C23.3 24.1 25.1 22.3 25.1 20.2C25.1 18 23.3 16.3 21.1 16.3C20.5 16.3 20 16.4 19.5 16.6" stroke="white" stroke-width="2" stroke-miterlimit="10" stroke-linecap="round"/>
<path d="M5 3.20001C5 3.20001 6.00002 4.30001 5.40002 5.70001C4.70002 7.10001 5.10001 7.90001 5.70001 8.20001" stroke="white" stroke-width="2" stroke-miterlimit="10" stroke-linecap="round"/>
<path d="M9.90002 1C9.90002 1 12.1 3.4 10.7 6.5C9.30001 9.6 9.99999 11.3 11.3 11.9" stroke="white" stroke-width="2" stroke-miterlimit="10" stroke-linecap="round"/>
<path d="M15 3.5C15 3.5 16 4.6 15.4 6C14.7 7.4 15.1 8.2 15.7 8.5" stroke="white" stroke-width="2" stroke-miterlimit="10" stroke-linecap="round"/>
<path d="M19.4 16.2H6.79999" stroke="white" stroke-width="2" stroke-miterlimit="10" stroke-linecap="round"/>
</svg>
