<svg width="38" height="54" viewBox="0 0 38 54" fill="none" xmlns="http://www.w3.org/2000/svg">
<path fill-rule="evenodd" clip-rule="evenodd" d="M12 46.2C10.4 44 8.7 41.6 7 39C5.3 36.4 3.9 33.5 2.6 30.3C1.3 27.1 0.5 24.1 0.2 21.4C0.1 20.5 0 19.7 0 18.9C0 13.7 1.9 9.2 5.6 5.5C9.3 1.8 13.7 0 19 0C24.3 0 28.7 1.8 32.4 5.5C36.1 9.2 38 13.7 38 18.9C38 19.6 37.9 20.4 37.8 21.2C37.5 24 36.7 27 35.4 30.3C34.1 33.5 32.6 36.4 31.2 38.8C29.7 41.2 28 43.7 26.2 46.2C24.3 48.7 23 50.4 22.3 51.2C21.6 52 21 52.7 20.6 53.1C20.3 53.4 20 53.6 19.8 53.8C19.5 54 19.3 54 19.2 54C19.1 54 18.9 54 18.7 53.9C18.3 53.7 18.1 53.4 17.9 53.2C17.8 53.2 17.3 52.6 16.2 51.4C15 50.1 13.7 48.4 12 46.2Z" fill="#357EDD"/>
</svg>
