<svg width="30" height="24" viewBox="0 0 30 24" fill="none" xmlns="http://www.w3.org/2000/svg">
<path d="M24.885 13.582H1.5C1.10218 13.582 0.720644 13.424 0.43934 13.1427C0.158035 12.8614 0 12.4799 0 12.082C0 11.6842 0.158035 11.3027 0.43934 11.0214C0.720644 10.7401 1.10218 10.582 1.5 10.582H24.885L16.935 2.63205C16.779 2.49644 16.6527 2.33006 16.5641 2.14335C16.4754 1.95663 16.4263 1.75361 16.4198 1.54702C16.4134 1.34043 16.4497 1.13473 16.5264 0.942826C16.6032 0.750923 16.7188 0.576957 16.866 0.431845C17.0132 0.286732 17.1888 0.173603 17.3817 0.0995575C17.5747 0.0255117 17.7809 -0.00785365 17.9874 0.00155494C18.1939 0.0109635 18.3962 0.0629426 18.5816 0.154232C18.767 0.245521 18.9316 0.37415 19.065 0.532047L29.565 11.032C29.8398 11.3124 29.9938 11.6894 29.9938 12.082C29.9938 12.4747 29.8398 12.8517 29.565 13.132L19.065 23.632C18.7798 23.88 18.4116 24.0111 18.0339 23.9993C17.6562 23.9874 17.2969 23.8335 17.0278 23.5682C16.7587 23.3029 16.5996 22.9458 16.5824 22.5683C16.5652 22.1908 16.6912 21.8207 16.935 21.532L24.885 13.582Z" fill="#718096"/>
</svg>
