<svg width="32" height="26" viewBox="0 0 32 26" fill="none" xmlns="http://www.w3.org/2000/svg">
<path d="M22.2645 15.7604C22.2645 15.7604 8.54883 15.6682 1.9728 15.6682C0.469708 15.6682 0 15.1152 0 13.5484C0 12.9954 0 12.5346 0 11.9816C0 10.7834 0.657597 10.1382 1.78492 10.1382C8.45489 10.1382 22.3585 10.1382 22.3585 10.1382C22.3585 10.1382 18.7886 6.26728 17.1916 4.60829C16.2522 3.68663 16.2522 2.76497 17.1916 1.84331C17.5674 1.38248 18.0371 1.01383 18.4129 0.552996C19.1644 -0.184332 20.0099 -0.184332 20.7614 0.552996C24.3313 4.23963 27.9011 7.92628 31.471 11.7051C32.2225 12.4424 32.1286 13.364 31.471 14.1014C27.9011 17.788 24.3313 21.5668 20.7614 25.2535C20.0099 25.9908 19.1644 25.9908 18.4129 25.2535C17.9431 24.7926 17.5674 24.3318 17.0977 23.9631C16.2522 23.1336 16.2522 22.212 17.0977 21.3825C18.6008 19.6314 22.2645 15.7604 22.2645 15.7604Z" fill="white"/>
</svg>
