<svg width="40" height="50" viewBox="0 0 40 50" fill="none" xmlns="http://www.w3.org/2000/svg">
<path d="M30.5423 6.25026H8.22459C8.076 6.25332 7.92825 6.22864 7.79002 6.17767C7.65178 6.1267 7.52585 6.05047 7.4196 5.95345C7.31336 5.85643 7.22894 5.74058 7.1713 5.6127C7.11367 5.48481 7.08398 5.34747 7.08398 5.20872C7.08398 5.06998 7.11367 4.93264 7.1713 4.80475C7.22894 4.67686 7.31336 4.56101 7.4196 4.464C7.52585 4.36698 7.65178 4.29075 7.79002 4.23978C7.92825 4.18881 8.076 4.16413 8.22459 4.16718H30.5423C30.6909 4.16413 30.8386 4.18881 30.9769 4.23978C31.1151 4.29075 31.241 4.36698 31.3473 4.464C31.4535 4.56101 31.538 4.67686 31.5956 4.80475C31.6532 4.93264 31.6829 5.06998 31.6829 5.20872C31.6829 5.34747 31.6532 5.48481 31.5956 5.6127C31.538 5.74058 31.4535 5.85643 31.3473 5.95345C31.241 6.05047 31.1151 6.1267 30.9769 6.17767C30.8386 6.22864 30.6909 6.25332 30.5423 6.25026V6.25026Z" fill="#999999"/>
<path d="M12.688 10.4194C12.3928 10.4192 12.1097 10.3102 11.9002 10.116L7.4367 5.94985C7.22772 5.75435 7.11035 5.48945 7.11035 5.21326C7.11035 4.93708 7.22772 4.67218 7.4367 4.47668L11.8997 0.304956C12.1091 0.109601 12.3931 -9.47877e-05 12.6892 6.14576e-08C12.9852 9.49106e-05 13.2691 0.109973 13.4784 0.305462C13.6877 0.500952 13.8052 0.766039 13.8051 1.04241C13.805 1.31878 13.6873 1.58379 13.4778 1.77914L9.80202 5.21048L13.4757 8.6398C13.6316 8.78554 13.7378 8.97112 13.7808 9.17312C13.8239 9.37513 13.8019 9.58451 13.7176 9.77486C13.6334 9.96522 13.4906 10.128 13.3074 10.2427C13.1241 10.3574 12.9086 10.4189 12.688 10.4194V10.4194Z" fill="#999999"/>
<path d="M16.1899 49.9999C14.5794 50.0042 12.984 49.7102 11.496 49.1348C10.0081 48.5594 8.65729 47.7142 7.5218 46.648L4.01121 43.3729C2.86781 42.311 1.9613 41.048 1.34412 39.6569C0.726937 38.2658 0.411336 36.7743 0.415569 35.2687V15.6254C0.416573 14.7969 0.76958 14.0026 1.39714 13.4168C2.02471 12.831 2.87558 12.5014 3.76309 12.5005C4.9594 12.5052 6.11421 12.9103 7.01768 13.6424C7.92115 14.3744 8.51332 15.3847 8.68658 16.4896L10.1011 24.8978L25.2952 10.7168C25.8223 10.2272 26.477 9.87446 27.1948 9.69344C27.9126 9.51242 28.6686 9.50937 29.3881 9.68461C30.1075 9.85985 30.7655 10.2073 31.297 10.6926C31.8286 11.178 32.2152 11.7844 32.4188 12.4519C33.2811 11.8424 34.359 11.5609 35.4349 11.6642C36.5108 11.7675 37.5048 12.2479 38.2161 13.0084C38.9275 13.769 39.3034 14.7531 39.2679 15.7623C39.2324 16.7714 38.7882 17.7304 38.0249 18.4458L29.6114 26.2997C30.2756 26.4819 30.8822 26.8122 31.3792 27.2621C31.8761 27.712 32.2484 28.2679 32.4639 28.882C32.6794 29.4961 32.7317 30.1499 32.6162 30.787C32.5008 31.4242 32.2211 32.0256 31.8012 32.5393C32.4982 32.7201 33.133 33.0669 33.6432 33.5457C34.0422 33.9144 34.3593 34.3531 34.5761 34.8366C34.7928 35.3201 34.9051 35.8389 34.9063 36.363C34.9076 36.8871 34.7979 37.4063 34.5834 37.8907C34.3689 38.3751 34.054 38.8152 33.6567 39.1855L24.4382 47.0187C22.1838 48.939 19.2413 50.0024 16.1894 49.9999H16.1899ZM3.76038 14.5836C3.46462 14.5841 3.18114 14.694 2.97206 14.8893C2.76298 15.0846 2.64533 15.3493 2.6449 15.6254V35.2692C2.64163 36.5011 2.89987 37.7213 3.40469 38.8595C3.90952 39.9976 4.65094 41.0311 5.5861 41.9003L9.09669 45.1753C10.9198 46.877 13.3749 47.8578 15.9523 47.9143C18.5297 47.9708 21.0314 47.0986 22.9381 45.4788L32.1214 37.679C32.4834 37.3285 32.6837 36.8595 32.6794 36.3727C32.6785 36.0008 32.5611 35.6372 32.3417 35.3268C32.1223 35.0163 31.8105 34.7725 31.4446 34.6253C31.0787 34.4782 30.6747 34.434 30.2823 34.4984C29.8899 34.5627 29.5262 34.7327 29.236 34.9875L29.1022 35.1124C28.8973 35.3019 28.6218 35.4099 28.3335 35.4139C28.0451 35.4178 27.7664 35.3174 27.5556 35.1336C27.3449 34.9499 27.2186 34.6971 27.2032 34.4283C27.1878 34.1595 27.2846 33.8955 27.4731 33.6919C27.4893 33.6733 27.5074 33.6564 27.5273 33.6413L29.8568 31.4667C30.0457 31.2905 30.1955 31.0814 30.2978 30.8512C30.4 30.621 30.4526 30.3742 30.4526 30.125C30.4526 29.8758 30.4 29.629 30.2978 29.3988C30.1955 29.1686 30.0457 28.9594 29.8568 28.7833C29.482 28.431 28.9747 28.2291 28.4428 28.2205C27.911 28.212 27.3965 28.3973 27.0088 28.7373L24.6365 30.9458C24.4256 31.1337 24.1443 31.2371 23.8528 31.2339C23.5613 31.2307 23.2827 31.1211 23.0767 30.9287C22.8706 30.7362 22.7533 30.4761 22.75 30.204C22.7467 29.9319 22.8575 29.6694 23.0589 29.4726L25.3884 27.298C25.4063 27.2813 25.4264 27.2626 25.4426 27.2474L36.4495 16.9726C36.8321 16.6154 37.0471 16.1309 37.047 15.6257C37.047 15.1205 36.8319 14.636 36.4492 14.2789C36.0665 13.9217 35.5475 13.7211 35.0063 13.7211C34.4652 13.7211 33.9462 13.9219 33.5636 14.2791L20.1729 26.7791C19.9626 26.9707 19.6797 27.0771 19.3858 27.0753C19.0919 27.0735 18.8107 26.9636 18.603 26.7694C18.3954 26.5753 18.2781 26.3125 18.2767 26.0381C18.2752 25.7638 18.3897 25.5 18.5953 25.3039L29.761 14.8809C30.1436 14.5238 30.3585 14.0393 30.3585 13.5342C30.3585 13.0291 30.1436 12.5446 29.761 12.1874C29.3783 11.8303 28.8594 11.6296 28.3183 11.6296C27.7771 11.6296 27.2582 11.8303 26.8756 12.1874L10.1304 27.8189C9.98486 27.9548 9.80189 28.0505 9.60172 28.0953C9.40155 28.1401 9.192 28.1323 8.99628 28.0727C8.80057 28.0132 8.62634 27.9042 8.49288 27.7579C8.35942 27.6116 8.27196 27.4337 8.24018 27.2439L6.47946 16.7961C6.38538 16.1845 6.0592 15.6247 5.56027 15.2187C5.06135 14.8126 4.42284 14.5872 3.76092 14.5836H3.76038Z" fill="#999999"/>
</svg>
