<svg xmlns="http://www.w3.org/2000/svg" width="151.15" height="49.496" viewBox="0 0 151.15 49.496"><defs><style>.a,.b,.d{fill:#fff;}.b{font-size:13.92px;}.b,.d,.e{font-family:Helvetica;}.c{letter-spacing:0.039em;}.d{font-size:21.972px;}.e{fill:#262c3a;font-size:15.457px;}.f{letter-spacing:-0.107em;}.g,.h{fill:none;stroke:#fff;}.g{stroke-linecap:round;stroke-linejoin:round;stroke-width:2px;}.h{stroke-width:1.5px;}</style></defs><g transform="translate(94.616 183.671)"><g transform="translate(-97 -186)"><rect class="a" width="132.5" height="29.5" rx="6" transform="translate(21.034 22.325)"/></g><text class="b" transform="translate(-20.332 -163.315)"><tspan x="0" y="0">Se</tspan><tspan class="c" y="0">r</tspan><tspan y="0">vice</tspan></text><g transform="translate(-97 -186)"><text class="d" transform="translate(32.884 22.534)"><tspan x="0" y="0">24h</tspan></text></g><text class="e" transform="translate(-64.466 -143.213)"><tspan x="0" y="0">+43</tspan><tspan class="f" y="0"> </tspan><tspan y="0">1</tspan><tspan class="f" y="0"> </tspan><tspan y="0">2661267</tspan></text><g transform="translate(-97 -186)"><path class="g" d="M29.06,5.969A16.712,16.712,0,1,0,17.718,36.616"/><line class="h" x2="6.25" transform="translate(3.369 19.72)"/><line class="h" y1="6.25" transform="translate(20.086 2.978)"/></g><line class="h" x1="4.532" y1="12.45" transform="translate(-80.762 -178.209)"/><line class="h" x1="5.578" y1="4.504" transform="translate(-81.806 -170.591)"/><g transform="translate(-97 -186)"><path class="a" d="M20.534,21.825a2,2,0,1,0-2-2,2,2,0,0,0,2,2"/></g></g></svg>