<svg width="12" height="12" viewBox="0 0 12 12" fill="none" xmlns="http://www.w3.org/2000/svg">
<g clip-path="url(#clip0)">
<path d="M11.3376 2.12067e-08H0.661835C0.296265 0.000183127 -9.15315e-05 0.296722 2.12067e-08 0.662384V11.3382C0.000183127 11.7037 0.296722 12.0001 0.662384 12H11.3376C11.7034 12.0001 11.9999 11.7036 12 11.3379C12 11.3378 12 11.3377 12 11.3376V0.661835C11.9998 0.296265 11.7033 -9.15315e-05 11.3376 2.12067e-08V2.12067e-08Z" fill="white"/>
<path d="M8.28516 12V7.35938H9.84961L10.084 5.54297H8.28516V4.38611C8.28516 3.86142 8.43082 3.50391 9.1832 3.50391H10.1367V1.8837C9.97083 1.86163 9.40164 1.81229 8.73935 1.81229C7.35654 1.81229 6.41016 2.65604 6.41016 4.20621V5.54297H4.85156V7.35938H6.41016V12H8.28516Z" fill="#262C3A"/>
</g>
<defs>
<clipPath id="clip0">
<rect width="12" height="12" fill="white"/>
</clipPath>
</defs>
</svg>
