<svg width="12" height="12" viewBox="0 0 12 12" fill="none" xmlns="http://www.w3.org/2000/svg">
<g clip-path="url(#clip0)">
<path d="M0.761574 0.812251C-0.181426 1.79175 0.0115742 2.83225 0.0115742 5.99325C0.0115742 8.61825 -0.446426 11.2498 1.95057 11.8693C2.69907 12.0618 9.33107 12.0618 10.0786 11.8683C11.0766 11.6108 11.8886 10.8013 11.9996 9.38975C12.0151 9.19275 12.0151 2.79725 11.9991 2.59625C11.8811 1.09275 10.9556 0.226251 9.73607 0.0507507C9.45657 0.0102507 9.40057 -0.00174926 7.96657 -0.00424926C2.88007 -0.00174926 1.76507 -0.228249 0.761574 0.812251Z" fill="white"/>
<path d="M5.99903 1.56949C4.18353 1.56949 2.45953 1.40799 1.80103 3.09799C1.52903 3.79599 1.56853 4.70249 1.56853 6.00049C1.56853 7.13949 1.53203 8.20999 1.80103 8.90249C2.45803 10.5935 4.19603 10.4315 5.99803 10.4315C7.73653 10.4315 9.52903 10.6125 10.1955 8.90249C10.468 8.19749 10.428 7.30449 10.428 6.00049C10.428 4.26949 10.5235 3.15199 9.68403 2.31299C8.83403 1.46299 7.68453 1.56949 5.99703 1.56949H5.99903ZM5.60203 2.36799C9.38903 2.36199 9.87103 1.94099 9.60503 7.78949C9.51053 9.85799 7.93553 9.63099 5.99953 9.63099C2.46953 9.63099 2.36803 9.52999 2.36803 5.99849C2.36803 2.42599 2.64803 2.36999 5.60203 2.36699V2.36799ZM8.36403 3.10349C8.07053 3.10349 7.83253 3.34149 7.83253 3.63499C7.83253 3.92849 8.07053 4.16649 8.36403 4.16649C8.65753 4.16649 8.89553 3.92849 8.89553 3.63499C8.89553 3.34149 8.65753 3.10349 8.36403 3.10349V3.10349ZM5.99903 3.72499C4.74253 3.72499 3.72403 4.74399 3.72403 6.00049C3.72403 7.25699 4.74253 8.27549 5.99903 8.27549C7.25553 8.27549 8.27353 7.25699 8.27353 6.00049C8.27353 4.74399 7.25553 3.72499 5.99903 3.72499V3.72499ZM5.99903 4.52349C7.95153 4.52349 7.95403 7.47749 5.99903 7.47749C4.04703 7.47749 4.04403 4.52349 5.99903 4.52349Z" fill="#262C3A"/>
</g>
<defs>
<clipPath id="clip0">
<rect width="12" height="12" fill="white"/>
</clipPath>
</defs>
</svg>
