<?xml version="1.0" encoding="utf-8"?>
<!-- Generator: Adobe Illustrator 24.2.3, SVG Export Plug-In . SVG Version: 6.00 Build 0)  -->
<svg version="1.1" id="Ebene_1" xmlns="http://www.w3.org/2000/svg" xmlns:xlink="http://www.w3.org/1999/xlink" x="0px" y="0px"
	 viewBox="0 0 230 35" style="enable-background:new 0 0 230 35;" xml:space="preserve">
<style type="text/css">
	.st0{fill:#FFFFFF;}
</style>
<g>
	<path class="st0" d="M63.37607,10.81373h-1.006v-1.113h1.006V10.81373z M63.34407,16.66673v-2.612c0-1.615-1.114-1.669-1.423-1.669
		c-0.311,0-1.424,0.054-1.424,1.669v2.612c0,1.69,0.493,2.118,1.424,2.118C62.85107,18.78473,63.34407,18.35673,63.34407,16.66673
		 M61.49207,10.81373h-1.006v-1.113h1.006V10.81373z M59.49107,16.62373v-2.536c0-1.542,0.792-2.525,2.43-2.525
		c1.636,0,2.429,0.983,2.429,2.525v2.536c0,2.14-0.793,2.986-2.429,2.986C60.28307,19.60973,59.49107,18.76373,59.49107,16.62373"/>
	<path class="st0" d="M67.56128,19.55533c-1.166,0-1.894-0.514-1.86201-1.756h0.995c0,0.311,0.011,1.038,0.899,1.038
		c0.525,0,0.931-0.266,0.931-0.823c0-0.963-2.696-0.985-2.696-2.601c0-0.567,0.342-1.476,1.861-1.476
		c0.963,0,1.78699,0.46,1.712,1.53h-0.974c0.011-0.566-0.288-0.867-0.845-0.867c-0.47,0-0.834,0.258-0.834,0.728
		c0,0.952,2.696,0.931,2.696,2.58C69.44427,19.09533,68.63128,19.55533,67.56128,19.55533"/>
	<path class="st0" d="M70.81548,14.04373v-1.038l0.877-0.395v1.433h1.17799v0.664h-1.17799v3.307c0,0.342,0,0.78,0.80199,0.78
		c0.065,0,0.204-0.021,0.397-0.042v0.675c-0.289,0.021-0.578,0.085-0.867,0.085c-0.83501,0-1.209-0.343-1.209-0.963v-3.842h-0.888
		v-0.664H70.81548z"/>
	<path class="st0" d="M76.65887,16.36543c0-1.571-0.439-1.765-1.081-1.765c-0.556,0-1.016,0.268-1.02699,1.765H76.65887z
		 M74.55087,17.02943c0,1.509,0.406,1.808,1.091,1.808c0.6,0,0.91-0.481,0.942-1.026h0.963c-0.011,1.199-0.749,1.744-1.883,1.744
		c-1.145,0-2.055-0.342-2.055-2.728c0-1.585,0.182-2.891,2.055-2.891c1.541,0,1.92599,0.846,1.92599,2.633v0.46H74.55087z"/>
	<path class="st0" d="M79.95578,14.85813h0.021c0.364-0.824,0.813-0.921,1.67-0.921v0.91c-0.075-0.01-0.161-0.022-0.236-0.032
		c-0.075-0.011-0.14899-0.021-0.236-0.021c-0.973,0-1.21899,0.737-1.21899,1.465v3.189h-0.87801v-5.404h0.87801V14.85813z"/>
	<path class="st0" d="M83.51968,14.85813h0.021c0.364-0.824,0.813-0.921,1.67-0.921v0.91c-0.075-0.01-0.161-0.022-0.236-0.032
		c-0.075-0.011-0.14899-0.021-0.236-0.021c-0.973,0-1.21899,0.737-1.21899,1.465v3.189h-0.87801v-5.404h0.87801V14.85813z"/>
	<path class="st0" d="M89.13807,16.36543c0-1.571-0.439-1.765-1.081-1.765c-0.556,0-1.016,0.268-1.02699,1.765H89.13807z
		 M87.03008,17.02943c0,1.509,0.407,1.808,1.091,1.808c0.6,0,0.91-0.481,0.942-1.026h0.963c-0.011,1.199-0.749,1.744-1.883,1.744
		c-1.145,0-2.055-0.342-2.055-2.728c0-1.585,0.182-2.891,2.055-2.891c1.54,0,1.92599,0.846,1.92599,2.633v0.46H87.03008z"/>
</g>
<path class="st0" d="M91.50417,19.44923h0.878v-5.405h-0.878V19.44923z M91.45018,12.66523h0.985v-0.942h-0.985V12.66523z"/>
<g>
	<path class="st0" d="M96.72558,15.77793c0.022-0.888-0.41701-1.123-0.749-1.123c-0.674,0-1.134,0.32-1.134,1.796
		c0,1.756,0.225,2.387,1.134,2.387c0.20399,0,0.814-0.214,0.782-1.188h0.92c0.032,1.52-1.103,1.905-1.702,1.905
		c-1.145,0-2.055-0.341-2.055-2.728c0-1.584,0.183-2.89,2.055-2.89c1.08099,0,1.712,0.632,1.659,1.841H96.72558z"/>
	<path class="st0" d="M102.18458,19.44863v-3.659c0-0.664-0.214-1.135-0.96301-1.135c-0.878,0-1.102,0.706-1.102,1.616v3.178h-0.878
		v-7.726h0.878v3.017h0.042c0.354-0.63,0.76-0.803,1.466-0.803c0.92101,0,1.43401,0.46,1.43401,1.68v3.832H102.18458z"/>
</g>
<path class="st0" d="M104.58218,19.44923h0.878v-5.405h-0.878V19.44923z M104.52917,12.66523h0.985v-0.942h-0.985V12.66523z"/>
<g>
	<path class="st0" d="M108.57468,19.55533c-1.166,0-1.894-0.514-1.86201-1.756h0.995c0,0.311,0.011,1.038,0.899,1.038
		c0.525,0,0.931-0.266,0.931-0.823c0-0.963-2.696-0.985-2.696-2.601c0-0.567,0.342-1.476,1.861-1.476
		c0.963,0,1.78699,0.46,1.712,1.53h-0.974c0.011-0.566-0.288-0.867-0.845-0.867c-0.47,0-0.834,0.258-0.834,0.728
		c0,0.952,2.696,0.931,2.696,2.58C110.45767,19.09533,109.64468,19.55533,108.57468,19.55533"/>
	<path class="st0" d="M114.55758,15.77793c0.021-0.888-0.41801-1.123-0.75-1.123c-0.674,0-1.134,0.32-1.134,1.796
		c0,1.756,0.225,2.387,1.134,2.387c0.20399,0,0.814-0.214,0.782-1.188h0.92c0.032,1.52-1.102,1.905-1.702,1.905
		c-1.144,0-2.054-0.341-2.054-2.728c0-1.584,0.182-2.89,2.054-2.89c1.08099,0,1.712,0.632,1.659,1.841H114.55758z"/>
	<path class="st0" d="M120.01588,19.44863v-3.659c0-0.664-0.214-1.135-0.96301-1.135c-0.878,0-1.102,0.706-1.102,1.616v3.178h-0.878
		v-7.726h0.878v3.017h0.042c0.354-0.63,0.76-0.803,1.466-0.803c0.92101,0,1.43401,0.46,1.43401,1.68v3.832H120.01588z"/>
	<path class="st0" d="M125.39937,16.36543c0-1.571-0.439-1.765-1.081-1.765c-0.556,0-1.016,0.268-1.02699,1.765H125.39937z
		 M123.29137,17.02943c0,1.509,0.406,1.808,1.091,1.808c0.6,0,0.91-0.481,0.942-1.026h0.963c-0.011,1.199-0.749,1.744-1.883,1.744
		c-1.145,0-2.055-0.342-2.055-2.728c0-1.585,0.182-2.891,2.055-2.891c1.541,0,1.92599,0.846,1.92599,2.633v0.46H123.29137z"/>
	<path class="st0" d="M128.69627,14.85813h0.021c0.364-0.824,0.813-0.921,1.67-0.921v0.91c-0.075-0.01-0.161-0.022-0.23601-0.032
		c-0.075-0.011-0.14899-0.021-0.23599-0.021c-0.97301,0-1.21899,0.737-1.21899,1.465v3.189h-0.87801v-5.404h0.87801V14.85813z"/>
</g>
<polygon class="st0" points="136.50877,19.44863 135.33177,19.44863 133.09477,11.72263 134.16577,11.72263 135.93176,18.51763 
	135.95276,18.51763 137.76077,11.72263 138.76677,11.72263 "/>
<g>
	<path class="st0" d="M142.24617,16.36543c0-1.571-0.439-1.765-1.08099-1.765c-0.556,0-1.01601,0.268-1.02699,1.765H142.24617z
		 M140.13818,17.02943c0,1.509,0.40599,1.808,1.09099,1.808c0.60001,0,0.91-0.481,0.942-1.026h0.963
		c-0.011,1.199-0.74899,1.744-1.883,1.744c-1.145,0-2.05499-0.342-2.05499-2.728c0-1.585,0.18199-2.891,2.05499-2.891
		c1.541,0,1.92599,0.846,1.92599,2.633v0.46H140.13818z"/>
	<path class="st0" d="M145.54297,14.85813h0.021c0.364-0.824,0.813-0.921,1.67-0.921v0.91c-0.075-0.01-0.161-0.022-0.23601-0.032
		c-0.075-0.011-0.14899-0.021-0.235-0.021c-0.974,0-1.21999,0.737-1.21999,1.465v3.189h-0.87801v-5.404h0.87801V14.85813z"/>
	<path class="st0" d="M150.13457,18.83763c1.10201,0,1.10201-1.176,1.10201-1.989c0-1.445-0.129-2.194-1.06999-2.194
		c-0.974,0-1.017,1.156-1.017,1.872C149.14958,17.35163,149.05357,18.83763,150.13457,18.83763 M149.14958,19.44863h-0.87801v-7.726
		h0.87801v2.868h0.032c0.29999-0.429,0.674-0.654,1.18799-0.654c1.744,0,1.787,1.552,1.787,2.901c0,2.376-0.87799,2.718-1.744,2.718
		c-0.56699,0-0.94199-0.247-1.24199-0.749h-0.021V19.44863z"/>
	<path class="st0" d="M154.35158,17.84393c0,0.524,0.256,0.994,0.845,0.994c0.53499,0,1.19899-0.332,1.11299-2.076
		C155.47458,16.77293,154.35158,16.69793,154.35158,17.84393 M156.33058,18.66693h-0.02101c-0.267,0.621-0.685,0.888-1.35899,0.888
		c-1.145,0-1.47701-0.738-1.47701-1.777c0-1.635,1.605-1.711,2.836-1.68c0.02101-0.716,0.032-1.497-0.909-1.497
		c-0.589,0-0.89999,0.395-0.84599,0.963h-0.953c0.04399-1.21,0.685-1.627,1.83099-1.627c1.39101,0,1.754,0.718,1.754,1.627v2.6
		c0,0.429,0.043,0.868,0.10701,1.285h-0.963V18.66693z"/>
	<path class="st0" d="M161.83228,19.44863v-3.746c0-0.577-0.20401-1.048-0.953-1.048c-0.963,0-1.10201,0.856-1.10201,1.595v3.199
		h-0.877v-4.28c0-0.375-0.022-0.749-0.054-1.125h0.931v0.696h0.043c0.343-0.609,0.74901-0.803,1.44501-0.803
		c1.15599,0,1.444,0.697,1.444,1.766v3.746H161.83228z"/>
	<path class="st0" d="M166.09206,14.65453c-0.942,0-1.06999,0.749-1.06999,2.194c0,0.813,0,1.989,1.10201,1.989
		c0.985,0,0.985-1.219,0.985-2.311C167.10907,15.81053,167.06606,14.65453,166.09206,14.65453 M167.10907,11.72253h0.877v7.726
		h-0.877v-0.642h-0.02101c-0.3,0.503-0.675,0.749-1.24199,0.749c-0.867,0-1.744-0.342-1.744-2.718c0-1.349,0.043-2.901,1.787-2.901
		c0.51399,0,0.888,0.225,1.18799,0.654h0.03201V11.72253z"/>
	<path class="st0" d="M61.26767,26.36833c-0.942,0-1.07,0.749-1.07,2.193c0,0.814,0,1.99,1.102,1.99c0.985,0,0.985-1.22,0.985-2.311
		C62.28467,27.52333,62.24167,26.36833,61.26767,26.36833 M62.28467,23.43533h0.877v7.727h-0.877v-0.642h-0.021
		c-0.3,0.503-0.675,0.749-1.242,0.749c-0.867,0-1.744-0.343-1.744-2.718c0-1.349,0.043-2.901,1.787-2.901
		c0.514,0,0.888,0.225,1.187,0.654h0.033V23.43533z"/>
	<path class="st0" d="M67.89237,28.07933c0-1.573-0.439-1.765-1.081-1.765c-0.556,0-1.016,0.268-1.02699,1.765H67.89237z
		 M65.78438,28.74333c0,1.509,0.407,1.808,1.091,1.808c0.6,0,0.91-0.481,0.942-1.026h0.963c-0.011,1.197-0.749,1.744-1.883,1.744
		c-1.145,0-2.055-0.343-2.055-2.73c0-1.583,0.182-2.889,2.055-2.889c1.541,0,1.92599,0.846,1.92599,2.633v0.46H65.78438z"/>
	<path class="st0" d="M71.33948,26.57053h0.021c0.364-0.823,0.813-0.92,1.67-0.92v0.91c-0.075-0.011-0.161-0.021-0.236-0.033
		c-0.075-0.01-0.14899-0.021-0.236-0.021c-0.973,0-1.21899,0.739-1.21899,1.466v3.19h-0.87801v-5.405h0.87801V26.57053z"/>
</g>
<rect x="76.89417" y="23.43523" class="st0" width="0.985" height="7.727"/>
<g>
	<path class="st0" d="M82.44888,31.16233v-3.746c0-0.545-0.15-1.048-0.856-1.048c-0.267,0-0.631,0.159-0.76,0.363
		c-0.16,0.268-0.203,0.59-0.203,0.792v3.639h-0.87801v-4.281c0-0.375-0.021-0.749-0.05299-1.124h0.931v0.675h0.021
		c0.257-0.578,0.717-0.782,1.349-0.782c0.492,0,1.059,0.204,1.262,0.697c0.3-0.578,0.792-0.697,1.284-0.697
		c0.568,0,1.47701,0.129,1.47701,1.403v4.109h-0.877v-3.746c0-0.545-0.15-1.048-0.857-1.048c-0.331,0-0.428,0.01-0.663,0.202
		c-0.256,0.215-0.299,0.751-0.299,0.953v3.639H82.44888z"/>
	<path class="st0" d="M90.32697,31.16233v-3.746c0-0.545-0.15-1.048-0.856-1.048c-0.267,0-0.631,0.159-0.76,0.363
		c-0.16,0.268-0.203,0.59-0.203,0.792v3.639h-0.87801v-4.281c0-0.375-0.021-0.749-0.05299-1.124h0.931v0.675h0.021
		c0.257-0.578,0.717-0.782,1.349-0.782c0.492,0,1.059,0.204,1.262,0.697c0.3-0.578,0.792-0.697,1.284-0.697
		c0.568,0,1.47701,0.129,1.47701,1.403v4.109h-0.877v-3.746c0-0.545-0.151-1.048-0.857-1.048c-0.331,0-0.428,0.01-0.663,0.202
		c-0.256,0.215-0.299,0.751-0.299,0.953v3.639H90.32697z"/>
	<path class="st0" d="M98.58978,28.16573c0-1.477-0.46-1.797-1.134-1.797c-0.675,0-1.134,0.32-1.134,1.797
		c0,1.755,0.224,2.386,1.134,2.386C98.36478,30.55173,98.58978,29.92073,98.58978,28.16573 M95.40078,28.53973
		c0-1.583,0.182-2.889,2.05499-2.889c1.872,0,2.054,1.306,2.054,2.889c0,2.386-0.91,2.729-2.054,2.729
		C96.30978,31.26873,95.40078,30.92573,95.40078,28.53973"/>
	<path class="st0" d="M102.98947,30.55133c1.10201,0,1.10201-1.176,1.10201-1.99c0-1.444-0.12901-2.193-1.07-2.193
		c-0.974,0-1.017,1.155-1.017,1.872C102.00448,29.06533,101.90848,30.55133,102.98947,30.55133 M102.00448,31.16233h-0.87801v-7.727
		h0.87801v2.869h0.032c0.3-0.429,0.674-0.654,1.188-0.654c1.744,0,1.787,1.552,1.787,2.901c0,2.375-0.878,2.718-1.744,2.718
		c-0.56699,0-0.94199-0.247-1.242-0.749h-0.021V31.16233z"/>
</g>
<path class="st0" d="M106.53117,31.16223h0.878v-5.405h-0.878V31.16223z M106.47818,24.37823h0.985v-0.943h-0.985V24.37823z"/>
<rect x="109.05817" y="23.43523" class="st0" width="0.878" height="7.727"/>
<path class="st0" d="M111.58418,31.16223h0.878v-5.405h-0.878V31.16223z M111.53117,24.37823h0.985v-0.943h-0.985V24.37823z"/>
<g>
	<path class="st0" d="M117.09637,28.07933c0-1.573-0.439-1.765-1.081-1.765c-0.556,0-1.016,0.268-1.02699,1.765H117.09637z
		 M114.98837,28.74333c0,1.509,0.407,1.808,1.091,1.808c0.6,0,0.91-0.481,0.942-1.026h0.963c-0.011,1.197-0.749,1.744-1.883,1.744
		c-1.145,0-2.055-0.343-2.055-2.73c0-1.583,0.182-2.889,2.055-2.889c1.54,0,1.92599,0.846,1.92599,2.633v0.46H114.98837z"/>
	<path class="st0" d="M122.56528,31.16233v-3.746c0-0.578-0.204-1.048-0.953-1.048c-0.963,0-1.102,0.856-1.102,1.593v3.201h-0.87701
		v-4.281c0-0.375-0.022-0.749-0.05399-1.124h0.931v0.696h0.043c0.34299-0.61,0.749-0.803,1.445-0.803
		c1.156,0,1.444,0.697,1.444,1.766v3.746H122.56528z"/>
</g>
<polygon class="st0" points="124.46037,25.75753 125.43437,25.75753 126.40837,30.41353 126.42937,30.41353 127.62837,25.75753 
	128.86937,25.75753 129.97136,30.41353 129.99237,30.41353 131.06337,25.75753 131.99336,25.75753 130.54936,31.16253 
	129.37236,31.16253 128.21637,26.56053 128.19536,26.56053 126.98637,31.16253 125.80837,31.16253 "/>
<path class="st0" d="M132.99017,31.16223h0.877v-5.405h-0.877V31.16223z M132.93718,24.37823h0.985v-0.943h-0.985V24.37823z"/>
<g>
	<path class="st0" d="M136.44757,26.57053h0.021c0.364-0.823,0.813-0.92,1.67-0.92v0.91c-0.075-0.011-0.161-0.021-0.23601-0.033
		c-0.075-0.01-0.14899-0.021-0.23599-0.021c-0.97301,0-1.21899,0.739-1.21899,1.466v3.19h-0.87801v-5.405h0.87801V26.57053z"/>
	<path class="st0" d="M139.34787,25.75753v-1.038l0.877-0.396v1.434h1.17799v0.663h-1.17799v3.308c0,0.342,0,0.78,0.80199,0.78
		c0.065,0,0.20401-0.021,0.397-0.042v0.674c-0.289,0.022-0.578,0.086-0.86699,0.086c-0.83501,0-1.209-0.343-1.209-0.964v-3.842
		h-0.888v-0.663H139.34787z"/>
	<path class="st0" d="M143.97177,31.26913c-1.16701,0-1.89401-0.514-1.86201-1.756h0.99501c0,0.311,0.011,1.038,0.899,1.038
		c0.52499,0,0.931-0.267,0.931-0.823c0-0.963-2.69701-0.985-2.69701-2.601c0-0.567,0.343-1.476,1.862-1.476
		c0.963,0,1.78799,0.459,1.71201,1.53h-0.974c0.011-0.568-0.28801-0.867-0.845-0.867c-0.47,0-0.834,0.256-0.834,0.728
		c0,0.952,2.696,0.931,2.696,2.578C145.85477,30.80913,145.04176,31.26913,143.97177,31.26913"/>
	<path class="st0" d="M150.10347,27.49173c0.02199-0.889-0.41701-1.123-0.74901-1.123c-0.674,0-1.134,0.32-1.134,1.796
		c0,1.756,0.22501,2.387,1.134,2.387c0.20399,0,0.814-0.214,0.782-1.188h0.92c0.032,1.52-1.103,1.905-1.702,1.905
		c-1.145,0-2.05499-0.343-2.05499-2.729c0-1.583,0.183-2.889,2.05499-2.889c1.08099,0,1.71201,0.631,1.659,1.841H150.10347z"/>
	<path class="st0" d="M155.71268,31.16233v-3.661c0-0.663-0.214-1.133-0.96301-1.133c-0.87799,0-1.10199,0.706-1.10199,1.615v3.179
		h-0.87801v-7.727h0.87801v3.018h0.04199c0.354-0.632,0.76001-0.803,1.466-0.803c0.92101,0,1.43401,0.46,1.43401,1.681v3.831
		H155.71268z"/>
	<path class="st0" d="M159.08447,29.55673c0,0.525,0.256,0.995,0.845,0.995c0.53499,0,1.19899-0.332,1.11299-2.076
		C160.20747,28.48673,159.08447,28.41173,159.08447,29.55673 M161.06348,30.38073h-0.02101c-0.267,0.621-0.685,0.888-1.35899,0.888
		c-1.145,0-1.47701-0.739-1.47701-1.776c0-1.638,1.605-1.712,2.836-1.681c0.02101-0.716,0.032-1.497-0.91-1.497
		c-0.588,0-0.89899,0.395-0.84499,0.962h-0.953c0.04399-1.209,0.685-1.626,1.83099-1.626c1.39101,0,1.754,0.718,1.754,1.626v2.601
		c0,0.427,0.043,0.868,0.10701,1.285h-0.963V30.38073z"/>
	<path class="st0" d="M163.94388,25.75753v-1.048c0-1.092,0.76999-1.306,1.55099-1.306c0.18199,0,0.289,0.01,0.41699,0.032v0.632
		c-0.92999-0.064-1.09099,0.332-1.09099,0.77v0.92h1.09099v0.663h-1.09099v4.742h-0.877v-4.742h-0.83501v-0.663H163.94388z"/>
	<path class="st0" d="M167.00508,25.75753v-1.038l0.877-0.396v1.434h1.17799v0.663h-1.17799v3.308c0,0.342,0,0.78,0.80199,0.78
		c0.065,0,0.20401-0.021,0.397-0.042v0.674c-0.289,0.022-0.578,0.086-0.86699,0.086c-0.83501,0-1.209-0.343-1.209-0.964v-3.842
		h-0.88901v-0.663H167.00508z"/>
</g>
<rect x="44.52493" y="4.06182" transform="matrix(0.70711 -0.70711 0.70711 0.70711 10.0271 36.84642)" class="st0" width="9.93238" height="4.51523"/>
<rect x="9.72586" y="4.06199" transform="matrix(0.70716 -0.70706 0.70706 0.70716 -0.16578 12.23859)" class="st0" width="9.93202" height="4.51488"/>
<polygon class="st0" points="22.37537,8.26763 29.44237,8.26763 33.74137,22.17563 38.04137,8.26763 43.08637,8.26763 
	35.29337,31.20063 30.16737,31.20063 "/>
<g>
	<path class="st0" d="M50.93177,9.24183v21.92h-6.476v-21.688c-0.001,0,3.155,3.137,3.119,3.124L50.93177,9.24183z"/>
	<path class="st0" d="M8.64977,8.55633l3.487,3.43c-2.402,0.74-2.897,3.083-3.083,4.879c-0.133,1.37-0.106,2.383-0.106,2.649
		c0,2.142-0.08,7.449,3.778,7.449h0.102c3.857,0,3.777-5.307,3.777-7.449c0-0.266,0.028-1.279-0.105-2.649
		c-0.187-1.796-0.682-4.139-3.083-4.879l3.487-3.43c5.486,2.107,6.831,6.995,6.831,11.171c0,6.052-3.283,11.149-9.846,11.662
		c-0.333,0.029-0.702,0.043-1.11,0.043c-0.38,0-0.751-0.014-1.111-0.043c-6.563-0.513-9.85-5.61-9.85-11.662
		C1.81777,15.55133,3.16277,10.66333,8.64977,8.55633"/>
</g>
<polygon class="st0" points="182.29768,31.16453 183.47467,31.16453 184.68468,26.56153 184.70567,26.56153 185.86267,31.16453 
	187.03868,31.16453 188.48468,25.75853 187.55368,25.75853 186.48268,30.41453 186.46167,30.41453 185.35867,25.75853 
	184.11768,25.75853 182.91867,30.41453 182.89668,30.41453 181.92368,25.75853 180.94968,25.75853 "/>
<polygon class="st0" points="190.02478,31.16453 191.20277,31.16453 192.41177,26.56153 192.43277,26.56153 193.58977,31.16453 
	194.76578,31.16453 196.21077,25.75853 195.28078,25.75853 194.20978,30.41453 194.18877,30.41453 193.08577,25.75853 
	191.84477,25.75853 190.64577,30.41453 190.62378,30.41453 189.64978,25.75853 188.67677,25.75853 "/>
<polygon class="st0" points="197.75188,31.16453 198.92987,31.16453 200.13887,26.56153 200.15987,26.56153 201.31686,31.16453 
	202.49287,31.16453 203.93887,25.75853 203.00787,25.75853 201.93687,30.41453 201.91586,30.41453 200.81287,25.75853 
	199.57187,25.75853 198.37286,30.41453 198.35088,30.41453 197.37787,25.75853 196.40387,25.75853 "/>
<rect x="204.32318" y="30.05123" class="st0" width="1.006" height="1.113"/>
<g>
	<path class="st0" d="M208.68907,31.27173c1.14499,0,2.05499-0.343,2.05499-2.729c0-1.585-0.18201-2.891-2.05499-2.891
		c-1.87401,0-2.05501,1.306-2.05501,2.891C206.63406,30.92873,207.54407,31.27173,208.68907,31.27173 M208.68907,30.55373
		c-0.91,0-1.13501-0.631-1.13501-2.386c0-1.478,0.461-1.799,1.13501-1.799c0.674,0,1.13499,0.321,1.13499,1.799
		C209.82407,29.92273,209.59906,30.55373,208.68907,30.55373"/>
</g>
<polygon class="st0" points="213.12077,31.16453 214.26677,31.16453 215.95776,25.75853 215.03676,25.75853 213.73076,30.34053 
	213.70976,30.34053 212.49977,25.75853 211.51576,25.75853 "/>
<path class="st0" d="M216.86618,31.16423h0.87801v-5.405h-0.87801V31.16423z M216.81218,24.37823h0.985v-0.941h-0.985V24.37823z"/>
<rect x="219.17618" y="30.05123" class="st0" width="1.007" height="1.113"/>
<g>
	<path class="st0" d="M224.41917,31.16473h0.96399c-0.064-0.418-0.10699-0.857-0.10699-1.285v-2.601c0-0.91-0.364-1.627-1.756-1.627
		c-1.145,0-1.787,0.418-1.83,1.627h0.953c-0.054-0.567,0.256-0.963,0.845-0.963c0.942,0,0.931,0.782,0.91,1.498
		c-1.231-0.032-2.83601,0.043-2.83601,1.681c0,1.038,0.33101,1.777,1.47601,1.777c0.67499,0,1.092-0.268,1.36-0.888h0.021V31.16473z
		 M224.39818,28.47773c0.08499,1.745-0.578,2.076-1.11301,2.076c-0.589,0-0.84601-0.471-0.84601-0.995
		C222.43916,28.41373,223.56416,28.48873,224.39818,28.47773"/>
	<path class="st0" d="M226.19717,25.75893v0.664h0.88799v3.842c0,0.621,0.375,0.964,1.21001,0.964c0.289,0,0.578-0.064,0.867-0.086
		v-0.674c-0.19301,0.021-0.332,0.043-0.39601,0.043c-0.80299,0-0.80299-0.439-0.80299-0.782v-3.307h1.17799v-0.664h-1.17799v-1.435
		l-0.87801,0.396v1.039H226.19717z"/>
</g>
<polygon class="st0" points="182.65158,12.57933 182.67258,12.57933 184.79158,19.45033 185.72258,19.45033 187.88557,12.57933 
	187.90657,12.57933 187.90657,19.45033 188.89157,19.45033 188.89157,11.72333 187.26457,11.72333 185.29457,18.20933 
	185.27357,18.20933 183.32457,11.72333 181.73058,11.72333 181.73058,19.45033 182.65158,19.45033 "/>
<path class="st0" d="M190.51617,19.45123h0.87801v-5.405h-0.87801V19.45123z M190.46217,12.66523h0.985v-0.942h-0.985V12.66523z"/>
<g>
	<path class="st0" d="M192.11998,14.04513v0.664h0.88799v3.842c0,0.621,0.375,0.964,1.21001,0.964c0.289,0,0.578-0.064,0.866-0.086
		v-0.674c-0.192,0.021-0.33099,0.043-0.395,0.043c-0.80299,0-0.80299-0.44-0.80299-0.782v-3.307h1.177v-0.664h-1.177v-1.434
		l-0.87801,0.396v1.038H192.11998z"/>
	<path class="st0" d="M198.74466,14.70923h-0.022c-0.24699-0.525-0.696-0.771-1.263-0.771c-0.43999,0-1.69099,0.161-1.69099,2.644
		c0,1.606,0.28799,2.868,1.755,2.868c0.47099,0,0.963-0.245,1.188-0.674h0.03299v1.124c0,0.557-0.33299,0.931-0.942,0.931
		c-0.483,0-0.814-0.278-0.825-0.781h-0.985c-0.075,0.996,0.739,1.445,1.63701,1.445c1.189,0,1.99199-0.289,1.99199-1.499v-5.951
		h-0.877V14.70923z M198.76567,16.72123c0,0.75,0.032,2.002-1.02802,2.002c-0.653,0-1.049-0.407-1.049-2.141
		c0-0.718,0.032-1.916,1.028-1.916C198.81866,14.66623,198.76567,15.91923,198.76567,16.72123"/>
</g>
<rect x="201.21718" y="11.72323" class="st0" width="0.87801" height="7.728"/>
<path class="st0" d="M203.59218,19.45123h0.877v-5.405h-0.877V19.45123z M203.53917,12.66523h0.98399v-0.942h-0.98399V12.66523z"/>
<g>
	<path class="st0" d="M209.88377,17.03213v-0.46c0-1.788-0.38499-2.634-1.927-2.634c-1.873,0-2.05499,1.306-2.05499,2.891
		c0,2.386,0.911,2.729,2.05499,2.729c1.134,0,1.873-0.546,1.884-1.745h-0.963c-0.032,0.545-0.343,1.027-0.942,1.027
		c-0.685,0-1.092-0.299-1.092-1.808H209.88377z M206.84378,16.36813c0.01099-1.499,0.47099-1.766,1.028-1.766
		c0.642,0,1.08099,0.193,1.08099,1.766H206.84378z"/>
	<path class="st0" d="M214.19858,14.59203h-0.033c-0.3-0.429-0.674-0.654-1.187-0.654c-1.746,0-1.78801,1.553-1.78801,2.901
		c0,2.376,0.877,2.719,1.744,2.719c0.56799,0,0.94299-0.246,1.242-0.749h0.022v0.642h0.877v-7.728h-0.877V14.59203z
		 M214.19858,16.52903c0,1.091,0,2.312-0.985,2.312c-1.10301,0-1.10301-1.178-1.10301-1.991c0-1.445,0.129-2.194,1.071-2.194
		C214.15556,14.65603,214.19858,15.81203,214.19858,16.52903"/>
</g>
<rect x="174.69917" y="6.04223" class="st0" width="0.765" height="27.562"/>
</svg>
