<svg width="27" height="24" viewBox="0 0 27 24" fill="none" xmlns="http://www.w3.org/2000/svg">
<path d="M22.8989 3.87066C22.3456 3.31708 21.6886 2.87794 20.9655 2.57833C20.2425 2.27872 19.4674 2.12451 18.6847 2.12451C17.902 2.12451 17.127 2.27872 16.4039 2.57833C15.6809 2.87794 15.0239 3.31708 14.4706 3.87066L13.3222 5.01899L12.1739 3.87066C11.0562 2.75299 9.54035 2.12509 7.95973 2.12509C6.37911 2.12509 4.86323 2.75299 3.74557 3.87066C2.6279 4.98832 2 6.5042 2 8.08482C2 9.66544 2.6279 11.1813 3.74557 12.299L4.8939 13.4473L13.3222 21.8757L21.7506 13.4473L22.8989 12.299C23.4525 11.7457 23.8916 11.0887 24.1912 10.3656C24.4908 9.64254 24.645 8.86752 24.645 8.08482C24.645 7.30213 24.4908 6.5271 24.1912 5.80402C23.8916 5.08094 23.4525 4.42397 22.8989 3.87066V3.87066Z" stroke="#555770" stroke-width="3" stroke-linecap="round" stroke-linejoin="round"/>
</svg>
